<svg
  width="100%"
  className="icon"
  version="1.1"
  xmlns="http://www.w3.org/2000/svg"
  x="0px"
  y="0px"
  viewBox="0 0 461 191"
  style="enable-background: new 0 0 461 191"
>
  <path
    d="M585.7578589,4.5791844l-25.2846049-49.6065433-39.3784379-39.3784379-49.6216051-25.269543-55.0064265-8.7239874-54.9913647,8.7239874-49.6216051,25.269543-39.3784379,39.3784379-25.269543,49.6216051-8.7239874,54.9913647,8.7239874,55.0064265,25.269543,49.6216051,39.3784379,39.3784379,49.6216051,25.2846049,54.9913647,8.7239874,55.0064265-8.7239874,49.6216051-25.2846049,39.3784379-39.3784379,25.2846049-49.6216051,8.7239874-55.0064265-8.7239874-55.0064265ZM576.6023284,108.9966085l-25.4105218-8.2548327,31.6556753-31.1455525-6.2451535,39.4003852ZM468.3746901,219.3254159l-1.8000185.2853142-44.9193-23.3409395,61.15484-35.0747981-14.2480663,58.0348023-.1874553.0956211ZM364.5739406,219.3254159l-.2040664-.1040558-14.2219878-58.0350605,61.1517416,35.0801343-44.9368578,23.3425748-1.7888297-.2835928ZM320.020428,196.6120816l25.1998283-34.6813829,13.3190522,54.3183158-38.5188805-19.6369329ZM250.1187927,69.6125762l31.6305436,31.1355686-25.3880582,8.2483776-6.2424854-39.3839463ZM256.3612781,10.1892448l40.8044925,13.2527802-47.5792202,29.4764429,6.7747276-42.729223ZM364.5739406-100.1240704l.1907259-.0302097,45.6927037,38.6299077-70.1075091,7.5863454,22.6618659-45.3906063,1.5622136-.7954371ZM468.3746901-100.1240704l1.5429345.7858836,22.6799401,45.4001599-70.1211939-7.5864315,45.6950276-38.6318012.2032917.0321893ZM512.9479122-77.4220969l-15.722663,21.6405013-19.8749099-39.7709924,35.5975729,18.1304911ZM584.4342247,59.5856109l-.2765353,1.7448491-36.1537419,35.5728715-14.4397389-68.9949128,50.840581,31.4917165.0294351.1854757ZM248.5294678,59.5856109l.0310704-.1958039,50.8239699-31.4813884-14.4548007,68.9949128-36.120778-35.5547112-.2794616-1.7630094ZM416.4601572-54.8425978L451.1578069,3.360811h-69.3687046l34.6710548-58.2034088ZM378.272551,11.2377207l34.1778873,47.0469779-55.2963884,17.9652412,21.1185011-65.0122192ZM414,63v58.1991914l-55.3492339-40.215876,55.3492339-17.9833155ZM418.9636925,62.9926843l55.3491479,17.9858975-55.3491479,40.2012445v-58.187142ZM416.4667844,55.3740635l-34.1779734-47.04956h68.3611108l-34.1831374,47.04956ZM352.2597279,75.24467l-44.6684989-51.0171057,66.1128521-15.0005556-21.4443532,66.0176613ZM355.3639292,84.724073l56.1051659,40.7735082-62.2631329,26.6974911,6.157967-67.4709993ZM477.6046691,84.7232123l6.1534915,67.48718-62.2960108-26.7097127,56.1425193-40.7774673ZM420.4983645,58.2846987l34.1814161-47.0520559,21.1222881,65.0179857-55.3037041-17.9659298ZM459.2445496,9.2420705l66.0919376,14.9962522-44.6428508,51.0054005-21.4490869-66.0016527ZM459.741418,4.2651236l36.5896745-50.3669508,29.3212629,65.3162961-65.9109374-14.9493453ZM455.7252441,1.3388241l-34.5705278-58.0125968,71.1298205,7.6925529L455.7252441,1.3388241ZM377.218825,1.3451931l-36.5580877-50.3261547,71.1192341-7.6928971L377.218825,1.3451931ZM373.199983,4.2552258l-65.8833958,14.942546,29.3110209-65.2858282,36.5723749,50.3432822ZM304.4150752,28.1253952l44.4749328,50.8094245-59.1564357,19.2193327,14.6815029-70.0287572ZM350.4737385,83.6401372l-6.1320606,67.3326026-53.0974465-48.0885684,59.2295071-19.2440341ZM414,129.8090532v62.284908l-62.1132031-35.638369,62.1132031-26.6465391ZM418.9636925,129.8293651l62.1203467,26.6307026-62.1203467,35.6363894v-62.267092ZM482.4844457,83.6339403l59.2151338,19.2420546-53.0640522,48.0861585-6.1510816-67.3282131ZM484.0471757,78.9291393l44.4931791-50.810113,14.6586089,70.0261752-59.151788-19.2160622ZM575.0717016,5.4666278l-40.8056114,13.2651739,21.1499158-51.8210635,19.6556956,38.5558896ZM552.3358175-39.1311236l.1025066.2011401-22.6044588,55.3617998-28.8644159-64.3019891,50.1506628,7.5233439,1.2157053,1.2157053ZM501.2327303-52.8490993l15.7309255-21.6542721,28.2535079,28.2535939-43.9844334-6.5993218ZM418.9486307-65.0402352v-42.9180554l42.7435102,6.7749858-42.7435102,36.1430695ZM413.9849382-65.0402352l-42.7414446-36.1412621,42.7414446-6.7767072v42.9179693ZM335.7216602-55.7801325l-15.7250729-21.6471285,35.5872448-18.1193884-19.8621719,39.7665169ZM315.9789502-74.5116339l15.7368642,21.6623625-43.9849498,6.5972562,28.2480856-28.2596187ZM331.9791813-47.8701728l-28.8644159,64.3170509-22.6127213-55.3605949.110769-.2174068,1.2176849-1.2182013,50.1486833-7.5208479ZM277.5278049-33.0758353l21.1518093,51.8017843-40.7882258-13.2594934,19.6364165-38.5422909ZM283.3165418,105.4600035l-7.2950065,43.8334707-18.1294583-35.5729575,25.4244648-8.2605132ZM280.6128131,158.3024315l-.8029249-1.575468,8.3270435-49.9620026,52.2574264,47.334702-59.5919379,4.3924616-.189607-.1896931ZM341.1965084,159.0232479l-25.198193,34.678973-30.5604647-30.5728584,55.7586577-4.1061146ZM414,200.4582719v26.703688l-39.3893685-6.2452396,39.3893685-20.4584484ZM418.9636925,200.4614564l39.3668188,20.4560385-39.3668188,6.2398173v-26.6958558ZM487.7388747,161.9294076l25.1864878,34.6768214-38.5279176,19.6477774,13.3414298-54.3245988ZM516.9451512,193.6930978l-25.1904469-34.6850839,55.7559035,4.1196272-30.5654566,30.5654566ZM492.5634819,154.0994908l52.2327249-47.3374562,8.3312608,49.987995-.7916501,1.5524019-.1907259.1907259-59.5816098-4.3936666ZM556.9165951,149.319897l-7.3014616-43.8716848,25.4559655,8.2719602-18.154504,35.5997246ZM535.7877659,23.4452956l40.8146485-13.2560507,6.7770515,42.7435963-47.5917-29.4875456Z"
    fill="currentColor"
  />
  <metadata>
    <sfw xmlns="http://ns.adobe.com/SaveForWeb/1.0/">
      <slices />
      <sliceSourceBounds x="238.48" y="-46.6" width="356" height="356" bottomLeftOrigin="true" />
    </sfw>
  </metadata>
</svg>
